<svg width="512" height="512" viewBox="0 0 512 512" fill="none" xmlns="http://www.w3.org/2000/svg">
<g clip-path="url(#clip0_2201_2)">
<rect width="512" height="512" rx="64" fill="white"/>
<path d="M362.667 158.08V180.693C330.183 167.582 294.267 165.615 260.546 175.103C226.825 184.591 197.203 204.996 176.322 233.123C155.44 261.249 144.479 295.508 145.154 330.531C145.829 365.555 158.103 399.366 180.053 426.667H83.8401C78.4448 426.288 73.3948 423.874 69.7115 419.914C66.0283 415.953 63.9868 410.742 64.0001 405.333V85.3333C63.9868 79.9249 66.0283 74.7132 69.7115 70.7528C73.3948 66.7923 78.4448 64.3786 83.8401 64H275.84C278.483 64.0302 281.092 64.5937 283.511 65.6568C285.931 66.7199 288.111 68.2607 289.92 70.1867L357.973 143.147C361.374 147.35 363.051 152.687 362.667 158.08Z" fill="#2CA9BC"/>
<path d="M448 448L362.667 375.467M298.667 405.333C315.544 405.333 332.042 400.329 346.075 390.952C360.108 381.576 371.046 368.248 377.504 352.656C383.963 337.063 385.653 319.905 382.36 303.352C379.068 286.799 370.94 271.594 359.006 259.66C347.072 247.726 331.867 239.599 315.314 236.306C298.761 233.014 281.604 234.704 266.011 241.162C250.418 247.621 237.091 258.558 227.715 272.591C218.338 286.624 213.333 303.123 213.333 320C213.333 342.632 222.324 364.337 238.327 380.34C254.33 396.343 276.035 405.333 298.667 405.333Z" stroke="black" stroke-width="48" stroke-linecap="round" stroke-linejoin="round"/>
<path d="M170.667 426.667H85.3333C79.6754 426.667 74.2492 424.419 70.2484 420.418C66.2476 416.417 64 410.991 64 405.333V85.3333C64 79.6754 66.2476 74.2492 70.2484 70.2484C74.2492 66.2476 79.6754 64 85.3333 64H268.587C274.183 64.0236 279.546 66.2455 283.52 70.1867L356.48 143.147C360.421 147.12 362.643 152.483 362.667 158.08V170.667" stroke="black" stroke-width="48" stroke-linecap="round" stroke-linejoin="round"/>
</g>
<defs>
<clipPath id="clip0_2201_2">
<rect width="512" height="512" rx="64" fill="white"/>
</clipPath>
</defs>
</svg>
